<?xml version="1.0" encoding="utf-8"?>
<!-- Generator: Adobe Illustrator 25.0.0, SVG Export Plug-In . SVG Version: 6.00 Build 0)  -->
<svg version="1.1" id="Calque_1" xmlns="http://www.w3.org/2000/svg" xmlns:xlink="http://www.w3.org/1999/xlink" x="0px" y="0px"
	 viewBox="0 0 595.28 595.28" style="enable-background:new 0 0 595.28 595.28;" xml:space="preserve">
<style type="text/css">
	.st0{fill:#DE8E8F;}
	.st1{fill:#BB2F59;}
	.st2{fill:#E9ACA9;}
	.st3{fill:#D35F70;}
	.st4{fill:#EBBDB5;}
	.st5{fill:#090C0C;}
</style>
<path class="st0" d="M120.74,52.86c0,0,85.59,182.82,272.57,97.23c0,0-33.24-30.75-98.89-25.76
	C294.42,124.33,201.35,145.93,120.74,52.86z"/>
<path class="st0" d="M120.74,96.07c0,0,55.37,75.9,151.09,74.93c0,0,48.76,11.05,121.48-20.92c0,0,43.7,18.08,43.7,41.6
	c0,0-1.5,30.03-57.05,57.05c0,0-49.04,18.02-88.58,17.01c0,0-133.49-0.33-170.64-128.77c0,0,53.76,70.97,117.1,73.31
	C237.84,210.29,147.34,182.44,120.74,96.07z"/>
<path class="st1" d="M191.38,152.63l13.97-6.21c0,0,34.14,21.71,66.49,24.58C271.83,171.01,230.27,173.16,191.38,152.63z"/>
<path class="st1" d="M162.58,178.47l7.03-8.18c0,0,34.01,30.03,68.23,40C237.84,210.29,204.69,212.52,162.58,178.47z"/>
<path class="st2" d="M149.4,195.38c0,0-78.71,176.12,102.61,243.27c0,0,17.63-67.15,86.46-33.58c0,0-24.25-41.5-92.47-31.29
	c0,0-47.27-3.94-49.96-56.76c0,0-2.1-56.66,63.15-55.28C259.19,261.73,187.11,250.66,149.4,195.38z"/>
<path class="st3" d="M297,505.33c0,0-134.29,5.8-182.7-139.43c0,0-32.93-104.26,35.1-170.52c0,0-79.11,176.21,102.61,243.27
	C252.01,438.65,240.31,488.03,297,505.33z"/>
<path class="st3" d="M405.87,410.28c0,0-52.96,53.67-153.86,28.37c0,0-8.02,51.84,44.99,66.68
	C297,505.33,431.66,507.27,405.87,410.28z"/>
<path class="st4" d="M365.36,377.74c0,0,58.32-11.05,90.86,44.2c0,0-41.1,47.7-75.32,62.28c0,0,40.89-19.46,24.98-73.95
	C405.87,410.28,397.67,385.17,365.36,377.74z"/>
<path class="st3" d="M463.31,220.18c0,0,64.45,96.06-7.1,201.76c0,0-5.04-14.19-30.64-31.96
	C425.57,389.98,494.99,325.91,463.31,220.18z"/>
<path class="st1" d="M124.03,229.4c0,0-94.99,152.75,49.84,270.8c0,0,126.45,98.21,251.71-4.96c0,0,142.66-106.2,37.74-275.06
	c0,0,65.72,93.36-7.1,201.76c0,0-39.67,47.33-75.32,62.28c0,0-36.63,22.74-83.89,21.1c0,0-101.98,6.68-164.6-98.02
	C132.4,407.31,79.5,319.22,124.03,229.4z"/>
<circle class="st5" cx="330.37" cy="186.23" r="13.33"/>
<polygon class="st3" points="252.01,438.65 284.35,477.86 276.21,500.86 245.35,484.22 229.64,450.36 "/>
<rect width="2.49" height="2.49"/>
<rect x="592.78" y="592.78" width="2.49" height="2.49"/>
</svg>
